<mxfile host="app.diagrams.net" modified="2022-11-10T07:20:21.220Z" agent="5.0 (Windows NT 10.0; Win64; x64) AppleWebKit/537.36 (KHTML, like Gecko) Chrome/107.0.0.0 Safari/537.36" etag="Yi3mVYfxrrUJFxsQsPpF" version="20.5.3" type="github">
  <diagram id="9tN5ClGx5iQZVLSTjroQ" name="Page-1">
    <mxGraphModel dx="1422" dy="762" grid="1" gridSize="10" guides="1" tooltips="1" connect="1" arrows="1" fold="1" page="1" pageScale="1" pageWidth="1200" pageHeight="1920" math="0" shadow="0">
      <root>
        <mxCell id="0" />
        <mxCell id="1" parent="0" />
        <mxCell id="5CxpkVeVXIalpc9fhNLH-1" value="Order Purchasing Flow" style="whiteSpace=wrap;html=1;aspect=fixed;" parent="1" vertex="1">
          <mxGeometry x="90" y="190" width="80" height="80" as="geometry" />
        </mxCell>
        <mxCell id="5CxpkVeVXIalpc9fhNLH-2" value="L&lt;br&gt;B" style="rounded=0;whiteSpace=wrap;html=1;" parent="1" vertex="1">
          <mxGeometry x="350" y="105" width="30" height="250" as="geometry" />
        </mxCell>
        <mxCell id="5CxpkVeVXIalpc9fhNLH-3" value="Client" style="text;html=1;align=center;verticalAlign=middle;resizable=0;points=[];autosize=1;strokeColor=none;fillColor=none;" parent="1" vertex="1">
          <mxGeometry x="95" y="155" width="50" height="30" as="geometry" />
        </mxCell>
        <mxCell id="5CxpkVeVXIalpc9fhNLH-4" value="N/W" style="ellipse;shape=cloud;whiteSpace=wrap;html=1;" parent="1" vertex="1">
          <mxGeometry x="220" y="185" width="80" height="80" as="geometry" />
        </mxCell>
        <mxCell id="5CxpkVeVXIalpc9fhNLH-5" value="Order Purchase Service" style="rounded=0;whiteSpace=wrap;html=1;" parent="1" vertex="1">
          <mxGeometry x="470" y="120" width="120" height="60" as="geometry" />
        </mxCell>
        <mxCell id="5CxpkVeVXIalpc9fhNLH-6" value="Order&lt;br&gt;MySQL" style="shape=cylinder3;whiteSpace=wrap;html=1;boundedLbl=1;backgroundOutline=1;size=15;" parent="1" vertex="1">
          <mxGeometry x="690" y="130" width="60" height="80" as="geometry" />
        </mxCell>
        <mxCell id="5CxpkVeVXIalpc9fhNLH-7" value="Redis Cache" style="shape=note;whiteSpace=wrap;html=1;backgroundOutline=1;darkOpacity=0.05;size=30;" parent="1" vertex="1">
          <mxGeometry x="690" y="230" width="60" height="60" as="geometry" />
        </mxCell>
        <mxCell id="5CxpkVeVXIalpc9fhNLH-8" value="Cassandra" style="shape=cylinder3;whiteSpace=wrap;html=1;boundedLbl=1;backgroundOutline=1;size=15;" parent="1" vertex="1">
          <mxGeometry x="500" y="300" width="60" height="80" as="geometry" />
        </mxCell>
        <mxCell id="5CxpkVeVXIalpc9fhNLH-9" value="Order Archival Service" style="rounded=0;whiteSpace=wrap;html=1;" parent="1" vertex="1">
          <mxGeometry x="480" y="230" width="120" height="40" as="geometry" />
        </mxCell>
        <mxCell id="5CxpkVeVXIalpc9fhNLH-10" value="K&lt;br&gt;A&lt;br&gt;F&lt;br&gt;K&lt;br&gt;A" style="rounded=0;whiteSpace=wrap;html=1;" parent="1" vertex="1">
          <mxGeometry x="830" y="95" width="40" height="255" as="geometry" />
        </mxCell>
        <mxCell id="5CxpkVeVXIalpc9fhNLH-11" value="Notofication Service" style="rounded=0;whiteSpace=wrap;html=1;" parent="1" vertex="1">
          <mxGeometry x="930" y="155" width="120" height="60" as="geometry" />
        </mxCell>
        <mxCell id="5CxpkVeVXIalpc9fhNLH-12" value="Spark Consumer" style="rounded=0;whiteSpace=wrap;html=1;" parent="1" vertex="1">
          <mxGeometry x="930" y="280" width="120" height="60" as="geometry" />
        </mxCell>
        <mxCell id="5CxpkVeVXIalpc9fhNLH-13" value="Hadoop Cluster" style="rounded=0;whiteSpace=wrap;html=1;" parent="1" vertex="1">
          <mxGeometry x="930" y="410" width="120" height="60" as="geometry" />
        </mxCell>
        <mxCell id="5CxpkVeVXIalpc9fhNLH-14" value="Jobs" style="rounded=0;whiteSpace=wrap;html=1;" parent="1" vertex="1">
          <mxGeometry x="740" y="410" width="120" height="60" as="geometry" />
        </mxCell>
        <mxCell id="5CxpkVeVXIalpc9fhNLH-15" value="Recommendation&lt;br&gt;Service" style="rounded=0;whiteSpace=wrap;html=1;" parent="1" vertex="1">
          <mxGeometry x="570" y="410" width="120" height="60" as="geometry" />
        </mxCell>
        <mxCell id="5CxpkVeVXIalpc9fhNLH-16" value="Inventory&lt;br&gt;MySql" style="shape=cylinder3;whiteSpace=wrap;html=1;boundedLbl=1;backgroundOutline=1;size=15;" parent="1" vertex="1">
          <mxGeometry x="690" y="10" width="60" height="80" as="geometry" />
        </mxCell>
        <mxCell id="5CxpkVeVXIalpc9fhNLH-17" value="Inventory&amp;nbsp;&lt;br&gt;Service" style="rounded=0;whiteSpace=wrap;html=1;" parent="1" vertex="1">
          <mxGeometry x="470" y="20" width="120" height="60" as="geometry" />
        </mxCell>
        <mxCell id="5CxpkVeVXIalpc9fhNLH-18" value="" style="endArrow=classic;startArrow=classic;html=1;rounded=0;" parent="1" edge="1">
          <mxGeometry width="50" height="50" relative="1" as="geometry">
            <mxPoint x="170" y="230" as="sourcePoint" />
            <mxPoint x="230" y="230" as="targetPoint" />
            <Array as="points">
              <mxPoint x="200" y="230" />
            </Array>
          </mxGeometry>
        </mxCell>
        <mxCell id="5CxpkVeVXIalpc9fhNLH-19" value="" style="endArrow=classic;startArrow=classic;html=1;rounded=0;" parent="1" edge="1">
          <mxGeometry width="50" height="50" relative="1" as="geometry">
            <mxPoint x="290" y="229" as="sourcePoint" />
            <mxPoint x="350" y="229" as="targetPoint" />
            <Array as="points">
              <mxPoint x="320" y="229" />
            </Array>
          </mxGeometry>
        </mxCell>
        <mxCell id="5CxpkVeVXIalpc9fhNLH-20" value="" style="endArrow=classic;startArrow=classic;html=1;rounded=0;entryX=0;entryY=0.5;entryDx=0;entryDy=0;" parent="1" target="5CxpkVeVXIalpc9fhNLH-5" edge="1">
          <mxGeometry width="50" height="50" relative="1" as="geometry">
            <mxPoint x="380" y="149.5" as="sourcePoint" />
            <mxPoint x="440" y="149.5" as="targetPoint" />
            <Array as="points">
              <mxPoint x="410" y="149.5" />
            </Array>
          </mxGeometry>
        </mxCell>
        <mxCell id="5CxpkVeVXIalpc9fhNLH-21" value="" style="endArrow=classic;startArrow=classic;html=1;rounded=0;" parent="1" edge="1">
          <mxGeometry width="50" height="50" relative="1" as="geometry">
            <mxPoint x="380" y="260" as="sourcePoint" />
            <mxPoint x="480" y="260" as="targetPoint" />
            <Array as="points">
              <mxPoint x="410" y="260" />
            </Array>
          </mxGeometry>
        </mxCell>
        <mxCell id="5CxpkVeVXIalpc9fhNLH-22" value="" style="endArrow=classic;startArrow=classic;html=1;rounded=0;exitX=1;exitY=0.75;exitDx=0;exitDy=0;" parent="1" source="5CxpkVeVXIalpc9fhNLH-5" edge="1">
          <mxGeometry width="50" height="50" relative="1" as="geometry">
            <mxPoint x="600" y="249.5" as="sourcePoint" />
            <mxPoint x="680" y="250" as="targetPoint" />
            <Array as="points" />
          </mxGeometry>
        </mxCell>
        <mxCell id="5CxpkVeVXIalpc9fhNLH-23" value="" style="endArrow=classic;startArrow=classic;html=1;rounded=0;" parent="1" edge="1">
          <mxGeometry width="50" height="50" relative="1" as="geometry">
            <mxPoint x="590" y="49.5" as="sourcePoint" />
            <mxPoint x="690" y="49.5" as="targetPoint" />
            <Array as="points">
              <mxPoint x="620" y="49.5" />
            </Array>
          </mxGeometry>
        </mxCell>
        <mxCell id="5CxpkVeVXIalpc9fhNLH-24" value="" style="endArrow=classic;startArrow=classic;html=1;rounded=0;" parent="1" edge="1">
          <mxGeometry width="50" height="50" relative="1" as="geometry">
            <mxPoint x="870" y="180" as="sourcePoint" />
            <mxPoint x="930" y="180" as="targetPoint" />
            <Array as="points">
              <mxPoint x="900" y="180" />
            </Array>
          </mxGeometry>
        </mxCell>
        <mxCell id="5CxpkVeVXIalpc9fhNLH-25" value="" style="endArrow=classic;startArrow=classic;html=1;rounded=0;" parent="1" edge="1">
          <mxGeometry width="50" height="50" relative="1" as="geometry">
            <mxPoint x="690" y="439.5" as="sourcePoint" />
            <mxPoint x="740" y="440" as="targetPoint" />
            <Array as="points">
              <mxPoint x="720" y="439.5" />
            </Array>
          </mxGeometry>
        </mxCell>
        <mxCell id="5CxpkVeVXIalpc9fhNLH-26" value="" style="endArrow=classic;startArrow=classic;html=1;rounded=0;entryX=0;entryY=0.5;entryDx=0;entryDy=0;" parent="1" target="5CxpkVeVXIalpc9fhNLH-13" edge="1">
          <mxGeometry width="50" height="50" relative="1" as="geometry">
            <mxPoint x="860" y="439.5" as="sourcePoint" />
            <mxPoint x="910" y="440" as="targetPoint" />
            <Array as="points">
              <mxPoint x="890" y="439.5" />
            </Array>
          </mxGeometry>
        </mxCell>
        <mxCell id="5CxpkVeVXIalpc9fhNLH-27" value="" style="endArrow=classic;startArrow=classic;html=1;rounded=0;" parent="1" edge="1">
          <mxGeometry width="50" height="50" relative="1" as="geometry">
            <mxPoint x="520" y="230" as="sourcePoint" />
            <mxPoint x="520" y="180" as="targetPoint" />
          </mxGeometry>
        </mxCell>
        <mxCell id="5CxpkVeVXIalpc9fhNLH-28" value="" style="endArrow=classic;startArrow=classic;html=1;rounded=0;exitX=0.425;exitY=-0.083;exitDx=0;exitDy=0;exitPerimeter=0;" parent="1" source="5CxpkVeVXIalpc9fhNLH-5" edge="1">
          <mxGeometry width="50" height="50" relative="1" as="geometry">
            <mxPoint x="520" y="110" as="sourcePoint" />
            <mxPoint x="520" y="80" as="targetPoint" />
          </mxGeometry>
        </mxCell>
        <mxCell id="5CxpkVeVXIalpc9fhNLH-29" value="" style="endArrow=classic;startArrow=classic;html=1;rounded=0;" parent="1" edge="1">
          <mxGeometry width="50" height="50" relative="1" as="geometry">
            <mxPoint x="523" y="310" as="sourcePoint" />
            <mxPoint x="523" y="270" as="targetPoint" />
          </mxGeometry>
        </mxCell>
        <mxCell id="5CxpkVeVXIalpc9fhNLH-31" value="" style="endArrow=classic;startArrow=classic;html=1;rounded=0;entryX=1.1;entryY=0.651;entryDx=0;entryDy=0;entryPerimeter=0;exitX=-0.033;exitY=0.383;exitDx=0;exitDy=0;exitPerimeter=0;" parent="1" source="5CxpkVeVXIalpc9fhNLH-12" target="5CxpkVeVXIalpc9fhNLH-10" edge="1">
          <mxGeometry width="50" height="50" relative="1" as="geometry">
            <mxPoint x="989.5" y="270" as="sourcePoint" />
            <mxPoint x="989.5" y="220" as="targetPoint" />
          </mxGeometry>
        </mxCell>
        <mxCell id="5CxpkVeVXIalpc9fhNLH-32" value="" style="endArrow=classic;startArrow=classic;html=1;rounded=0;exitX=0.5;exitY=0;exitDx=0;exitDy=0;" parent="1" source="5CxpkVeVXIalpc9fhNLH-13" edge="1">
          <mxGeometry width="50" height="50" relative="1" as="geometry">
            <mxPoint x="989.5" y="390" as="sourcePoint" />
            <mxPoint x="989.5" y="340" as="targetPoint" />
          </mxGeometry>
        </mxCell>
        <mxCell id="5CxpkVeVXIalpc9fhNLH-33" value="" style="endArrow=classic;startArrow=classic;html=1;rounded=0;entryX=0;entryY=0.5;entryDx=0;entryDy=0;entryPerimeter=0;" parent="1" target="5CxpkVeVXIalpc9fhNLH-6" edge="1">
          <mxGeometry width="50" height="50" relative="1" as="geometry">
            <mxPoint x="590" y="144.5" as="sourcePoint" />
            <mxPoint x="690" y="144.5" as="targetPoint" />
            <Array as="points">
              <mxPoint x="620" y="144.5" />
            </Array>
          </mxGeometry>
        </mxCell>
        <mxCell id="5CxpkVeVXIalpc9fhNLH-34" value="" style="endArrow=classic;startArrow=classic;html=1;rounded=0;" parent="1" edge="1">
          <mxGeometry width="50" height="50" relative="1" as="geometry">
            <mxPoint x="590" y="120" as="sourcePoint" />
            <mxPoint x="830" y="120" as="targetPoint" />
            <Array as="points" />
          </mxGeometry>
        </mxCell>
      </root>
    </mxGraphModel>
  </diagram>
</mxfile>
